<svg id="Capa_1" data-name="Capa 1" xmlns="http://www.w3.org/2000/svg" viewBox="0 0 200.07 71.84"><defs><style>.cls-1{fill:#00457c;}.cls-2{fill:none;}.cls-3{fill:#fff;}</style></defs><title>logo_iica_espa</title><polygon class="cls-1" points="48.71 0 60.96 0 32.32 71.73 19.67 71.73 48.71 0"/><polygon class="cls-1" points="29.05 0 41.3 0 12.66 71.73 0 71.73 29.05 0"/><path class="cls-1" d="M157.7,98.54V48.72H147.64l-28.73,71.44,7.57-.07,4.43-12.37,15.39,0v12.57l11.6,0V107.72h7.35V98.54H157.7Zm-11,0-11.71,0,11.71-28.83V98.54Z" transform="translate(-42 -48.57)"/><path class="cls-1" d="M124.44,70.48s7.38-13.86-1.27-15.19c0,0-4-1-6.78,5.39L98,106.57s-3.22,6.84,3.19,7.38a7.27,7.27,0,0,0,7.18-4.19l3.79-9,6.65,0-4.46,10.6a13.8,13.8,0,0,1-14.56,9s-11.25-1.16-11.77-11.17c0,0-.88-3.46,4.39-15.56l14.17-35.91S112.44,43.51,128,50.9c0,0,8.57,4.07,4.59,15l-1.8,4.61h-6.31Z" transform="translate(-42 -48.57)"/><path class="cls-1" d="M213.13,84.31a0.21,0.21,0,0,0,.43,0" transform="translate(-42 -48.57)"/><polygon class="cls-1" points="164.34 58.33 164.34 13.47 164.9 13.47 164.9 58.33 164.34 58.33 164.34 58.33"/><path class="cls-1" d="M183.91,84.47a22.71,22.71,0,0,1,22.71-22.71h0a22.71,22.71,0,0,1,22.71,22.71h0a22.71,22.71,0,0,1-22.71,22.71h0a22.71,22.71,0,0,1-22.71-22.71h0Zm0.56,0a22.18,22.18,0,0,0,22.15,22.15h0a22.18,22.18,0,0,0,22.15-22.15h0a22.18,22.18,0,0,0-22.15-22.15h0a22.18,22.18,0,0,0-22.15,22.15h0Z" transform="translate(-42 -48.57)"/><polygon class="cls-1" points="142.19 36.18 142.19 35.62 187.05 35.62 187.05 36.18 142.19 36.18 142.19 36.18"/><polygon class="cls-1" points="144.41 27.08 144.41 26.52 184.94 26.52 184.94 27.08 144.41 27.08 144.41 27.08"/><polygon class="cls-1" points="144.07 45.19 144.07 44.64 185.16 44.64 185.16 45.19 144.07 45.19 144.07 45.19"/><path class="cls-1" d="M195.34,84.26c0-.25,0-0.5,0-0.74h0A26.49,26.49,0,0,1,206.24,61.8h0l0.3,0.47a23.59,23.59,0,0,0-5.32,5.2h0a26.08,26.08,0,0,0-5.33,16h0c0,0.24,0,.48,0,0.73h0a35.32,35.32,0,0,0,1.41,8.45h0c1.36,4.68,4,10.25,9.25,13.87h0l-0.32.46c-10.73-7.46-10.88-22.74-10.89-22.76h0Z" transform="translate(-42 -48.57)"/><path class="cls-1" d="M189,84.27q0-.38,0-0.75h0c0-14.85,17.5-21.72,17.51-21.74h0l0.2,0.52a36.78,36.78,0,0,0-8.6,5.22h0c-4.3,3.52-8.57,8.82-8.57,16h0c0,0.24,0,.48,0,0.73h0a23.31,23.31,0,0,0,2.25,8.41h0c2.18,4.67,6.46,10.24,14.9,13.88h0l-0.22.51C189.34,99.65,189,84.29,189,84.27h0Z" transform="translate(-42 -48.57)"/><path class="cls-1" d="M205.89,106.45c5.22-3.61,7.89-9.18,9.25-13.87h0a35,35,0,0,0,1.4-8.45h0c0-.25,0-0.49,0-0.73h0a26.06,26.06,0,0,0-5.33-16h0a23.24,23.24,0,0,0-5.32-5.2h0l0.3-.47A26.48,26.48,0,0,1,217.11,83.4h0c0,0.25,0,.49,0,0.74h0s-0.16,15.31-10.89,22.76h0l-0.32-.46h0Zm0-44.29h0Z" transform="translate(-42 -48.57)"/><path class="cls-1" d="M206.5,106.56c8.45-3.64,12.72-9.21,14.9-13.88h0a23,23,0,0,0,2.25-8.41h0c0-.25,0-0.49,0-0.73h0c0-7.18-4.26-12.48-8.57-16h0a36.42,36.42,0,0,0-8.59-5.22h0l0.2-.52s17.48,6.89,17.51,21.74h0c0,0.25,0,.5,0,0.74h0s-0.32,15.39-17.49,22.79h0l-0.22-.51h0Z" transform="translate(-42 -48.57)"/><path class="cls-1" d="M209.34,65.16s-0.77.71,0.26,0.91A4.77,4.77,0,0,1,212,67a0.33,0.33,0,0,0,.38-0.06,0.67,0.67,0,0,0,.33.64l0.52,0a0.34,0.34,0,0,1,.07.47s-0.26.41,1.07,0.83a0.28,0.28,0,0,1,.22.3s0,0.54.38,0.54a1,1,0,0,0,.3-0.14,0.82,0.82,0,0,1,.75.37s0.34,0.16.08-.3a1.06,1.06,0,0,1,.19-1.36,1.2,1.2,0,0,0,.56-0.53s0.1-.08-0.34-0.41c0,0-.15-0.27.51,0,0,0,.47.11-0.81-0.63a1.6,1.6,0,0,1-.4-0.78,2.06,2.06,0,0,0-1.82-.47A32.09,32.09,0,0,0,209.34,65.16Z" transform="translate(-42 -48.57)"/><path class="cls-1" d="M206.71,66.76s0,0.56.77,0.46A1.43,1.43,0,0,1,209,68.31s-0.1.56,0.46,0.29c0,0,.25-0.15.4,0.34a0.64,0.64,0,0,0,.74.28s0.33-.08-0.15-0.7c0,0-.21-0.19.42-0.1,0,0,.51-0.06-1-0.61a10.1,10.1,0,0,1-1.3-.63,3.12,3.12,0,0,0-1.38-.6A0.54,0.54,0,0,0,206.71,66.76Z" transform="translate(-42 -48.57)"/><path class="cls-1" d="M207.47,68.84a0.58,0.58,0,0,0-.22.53s0,0.11.27-.06c0,0,0-.11.15,0s0.38,0,.09-0.27a0.39,0.39,0,0,1-.12-0.26S207.49,68.58,207.47,68.84Z" transform="translate(-42 -48.57)"/><path class="cls-1" d="M207.43,68.62s-0.44.69-.93,0.38c0,0-.32-0.1-0.42.35,0,0,0,.35-1,0,0,0-.35,0,0.12.4,0,0,.47.24,0.09,0.84,0,0-.32.54,0.06,0.78a4,4,0,0,0,1.48.26,1.34,1.34,0,0,1,1,.58,1.5,1.5,0,0,0,.76.74s0.22,0-.27-1c0,0-.11-0.16.32-0.34,0,0,.34-0.06-0.14-0.86a0.85,0.85,0,0,1,0-.83s0.14-.21,1.38.43a0.23,0.23,0,0,1,0,.3s-0.15.24,0.66,0.51a0.93,0.93,0,0,0,.77-0.34,0.6,0.6,0,0,1,.61.46,3,3,0,0,0,1,1.15s0.71,0.44-.24.45A1.87,1.87,0,0,0,210.41,74s0,0.31,1.12-.34a0.66,0.66,0,0,1,.71.92s-0.24.39-.46-0.13c0,0-.37-0.42-0.92.56a4.26,4.26,0,0,1-1.23,1,1.23,1.23,0,0,0-.4.94,4.64,4.64,0,0,1-.77,1.55,1.36,1.36,0,0,0,.06,1.33,0.35,0.35,0,0,1-.29.46s-0.24,0-.29-0.51c0,0-.42-1.61-1.69-1.38a1.86,1.86,0,0,0-.57.48,1.28,1.28,0,0,1-1.38.17s-0.76-.06-0.62,1.14c0,0-.21,2.53.88,2.33a0.92,0.92,0,0,0,.75-0.46s0.83-.84.91-0.28a4.78,4.78,0,0,1-.19,1,2.37,2.37,0,0,0-.13,1,0.81,0.81,0,0,0,.7-0.14,0.44,0.44,0,0,1,.63.45,3.37,3.37,0,0,0,0,1.15,0.79,0.79,0,0,0,.43.31s0.06,0,.2.36c0,0,0,.14.35,0a1.15,1.15,0,0,1,1,.14s0.34,0.17.51-.34c0,0,.32-0.66.64-0.43a0.68,0.68,0,0,1,0,.6,0.36,0.36,0,0,0,.41.48,0.31,0.31,0,0,0,0-.41s-0.3-.47.62-0.36a1.47,1.47,0,0,1,.6.36s0,0.21.94-.22c0,0,.57-0.67.87,0.38a2.45,2.45,0,0,0,1.09,1.5,8,8,0,0,0,1.3.15,1.72,1.72,0,0,1,.82,1.15,1.62,1.62,0,0,1-.18.55s-0.24.35,0.71,0.22a1.07,1.07,0,0,1,1.07.63,1.83,1.83,0,0,0,1.3.19s1.42,0,1.58,1a1.36,1.36,0,0,1-.36,1.32s-1.38,1.33-1.22,2c0,0,.25.3-0.46,0.92a2.2,2.2,0,0,0-.71.88,0.83,0.83,0,0,1-.72.56s-1.75.58-1.54,1.3c0,0,.46.45-0.65,0.95a1.51,1.51,0,0,0-.59.87,1.56,1.56,0,0,1-2.07.57s-0.29,0,.15.43c0,0,.37.61-1.38,0.83,0,0-.45,0-0.44.69,0,0,.07.53-0.61,0,0,0-.17,0,0,0.3,0,0,.27.13-0.89,1a0.31,0.31,0,0,0,.11.45s0.22,0.24-.48.25a1.24,1.24,0,0,0-1.07.87s-0.25.56-.16-1.15a2.65,2.65,0,0,0,.35-2s-0.27-.21.42-1.34c0,0,1.34-4,1.23-5.09a2,2,0,0,1,.2-0.79s0.38-.63-1.1-1.25c0,0-2.28-2.68-1.63-3.68a0.45,0.45,0,0,0-.07-0.56s-0.28-.16.23-0.25c0,0,.43-0.14,0-1,0,0-.32-0.3.91-0.52,0,0,.57-0.19-0.22-1.61a0.35,0.35,0,0,0-.38,0,0.7,0.7,0,0,1-.81-0.3c-0.21-.46-0.29-0.21-0.4-0.27a3.07,3.07,0,0,1-.86-1.12s0-.22-0.48,0c0,0-.5.34-1-0.78a0.86,0.86,0,0,0-1.24-.27s-0.65.24-1.45-1a1.29,1.29,0,0,0-.58-0.36s-0.48,0-.7-1.63A0.68,0.68,0,0,0,200.5,80a3.62,3.62,0,0,1-1.2-2s-0.27-.51-0.29.31a1.26,1.26,0,0,0,.27.67,4.16,4.16,0,0,1,.57,1.5s0,0.53-.41-0.35a1.52,1.52,0,0,0-.73-0.93s-0.19-.12.07-0.4c0,0,.22,0-0.76-1.68a3,3,0,0,1-.58-1.65,1,1,0,0,0-.35-0.68s-0.34-.22.76-1.74c0,0,.33-0.34-0.59-1.26a1.46,1.46,0,0,1-.6-1.34s0.07-.88-1.2-0.78a1.74,1.74,0,0,1-.46-0.39s-0.46-.18-0.35.46c0,0,0,.78-0.79,0a0.75,0.75,0,0,0-.8.58s-0.52.68-2.42,0.75c0,0-.34.07,0.86-0.68,0,0,1.1-.35,1.1-0.74,0,0,0-.21-0.64,0,0,0-.83-0.15,1.07-0.66,0,0,.35-0.44,0-0.47,0,0-.53-0.49.56-0.35a1,1,0,0,0,1.06-.88s0.28-.74,1.91-0.11c0,0,3.15,1.1,4.21.07a0.43,0.43,0,0,1,.32.6,1.23,1.23,0,0,0,1.36.12s0.34-.15.09,0.42c0,0,0,.74.88-0.14,0,0,0-.21.71,0.07a0.84,0.84,0,0,0,1.15-.41s0.29-.93,1.05.36c0,0,.09.23,0.69,0C207,68.3,207.54,68.19,207.43,68.62Z" transform="translate(-42 -48.57)"/><path class="cls-1" d="M202.5,66.69s0.61,0.32.08,0.56c0,0-.39.56,0.85,0.17a0.67,0.67,0,0,1,.6.21s0.5,0.35.42-.28C204.45,67.35,204.33,66.67,202.5,66.69Z" transform="translate(-42 -48.57)"/><path class="cls-1" d="M210.59,82.25a0.92,0.92,0,0,1-.66-0.24,1,1,0,0,0-1-.3s-0.91.17-.43,0.25a2.46,2.46,0,0,1,1,.12,2.67,2.67,0,0,1,.65.29,0.41,0.41,0,0,0,.34.06,1.32,1.32,0,0,1,.32,0S211,82.27,210.59,82.25Z" transform="translate(-42 -48.57)"/><path class="cls-1" d="M211.53,82.84a0.78,0.78,0,0,1,.71.27s0.06,0.2-.32,0a0.32,0.32,0,0,0-.16-0.1S211.43,83,211.53,82.84Z" transform="translate(-42 -48.57)"/><path class="cls-1" d="M212.69,83.64a0.52,0.52,0,0,0,.09.22s0,0,0,.09,0.11,0.22.25-.2C213,83.75,213,83.59,212.69,83.64Z" transform="translate(-42 -48.57)"/><path class="cls-1" d="M212.23,85.29a0.21,0.21,0,0,0,.21.2c0.12,0-.18-0.18-0.18-0.18Z" transform="translate(-42 -48.57)"/><circle class="cls-2" cx="164.83" cy="36.26" r="26.24"/><path class="cls-1" d="M208.82,56.31c0.44,0,.75-0.73.84-2s-0.12-2.1-.57-2.13-0.78,1.09-.84,2C208.16,55.51,208.36,56.28,208.82,56.31Z" transform="translate(-42 -48.57)"/><polygon class="cls-1" points="141.5 14.33 141.49 14.34 142.86 16.13 143.38 15.58 141.5 14.33"/><path class="cls-1" d="M190.53,61.39c0.36-.25.13-1-0.62-2.11s-1.41-1.56-1.78-1.31,0.08,1.33.62,2.11C189.51,61.18,190.15,61.65,190.53,61.39Z" transform="translate(-42 -48.57)"/><path class="cls-1" d="M194.93,58.79c0.73-.32.78-1,0.21-2.27s-1.08-1.75-1.82-1.43l-0.11,0,1.63,3.69Z" transform="translate(-42 -48.57)"/><path class="cls-1" d="M205.66,56.27c0.44,0,.67-0.81.61-2.12s-0.35-2.08-.8-2.06-0.65,1.17-.61,2.12C204.91,55.55,205.2,56.29,205.66,56.27Z" transform="translate(-42 -48.57)"/><path class="cls-1" d="M180.38,95.53c-0.16-.4-1-0.36-2.2.14s-1.84,1-1.67,1.45,1.32,0.22,2.2-.14C180,96.47,180.56,96,180.38,95.53Z" transform="translate(-42 -48.57)"/><polygon class="cls-1" points="133.62 29.16 135.71 30.02 135.88 29.27 133.63 29.14 133.62 29.16"/><path class="cls-1" d="M179.53,68.54c-0.5-.29-0.83-0.26-1,0.09l1.44,0.83,0,0C180.13,69.11,180,68.8,179.53,68.54Z" transform="translate(-42 -48.57)"/><path class="cls-1" d="M175.37,80.34c-0.57-.08-0.87.08-0.93,0.48L176.08,81v0C176.13,80.64,175.89,80.41,175.37,80.34Z" transform="translate(-42 -48.57)"/><path class="cls-1" d="M236.18,72.41c0.53-.23.7-0.51,0.55-0.9l-1.52.66v0C235.36,72.55,235.7,72.62,236.18,72.41Z" transform="translate(-42 -48.57)"/><polygon class="cls-1" points="195.31 26.22 195.31 26.21 193.08 26.55 193.31 27.27 195.31 26.22"/><polygon class="cls-1" points="196.87 34.23 196.87 34.21 194.62 33.98 194.67 34.75 196.87 34.23"/><path class="cls-1" d="M204.53,112.89c-0.55,0-.79,1.08-0.86,2-0.11,1.33.09,2.1,0.55,2.14s0.76-.72.86-2S205,112.92,204.53,112.89Z" transform="translate(-42 -48.57)"/><path class="cls-1" d="M225,62.7c0.34,0.28,1-.16,1.86-1.18s1.12-1.78.77-2.07-1.26.44-1.86,1.18C224.9,61.67,224.62,62.41,225,62.7Z" transform="translate(-42 -48.57)"/><path class="cls-1" d="M218.34,55.14c0.2-.54.12-0.86-0.27-1l-0.58,1.55h0C217.87,55.82,218.15,55.63,218.34,55.14Z" transform="translate(-42 -48.57)"/><polygon class="cls-1" points="178.86 7.42 178.84 7.41 177.54 9.25 178.22 9.59 178.86 7.42"/><path class="cls-1" d="M212.93,53.51a0.77,0.77,0,0,0-.8-0.95l-0.29,1.68,0.12,0A0.78,0.78,0,0,0,212.93,53.51Z" transform="translate(-42 -48.57)"/><path class="cls-1" d="M233.74,67.63a0.77,0.77,0,0,0,.13-1.23l-1.42.95,0.07,0.1A0.78,0.78,0,0,0,233.74,67.63Z" transform="translate(-42 -48.57)"/><polygon class="cls-1" points="192.97 20.83 192.96 20.82 190.83 21.56 191.19 22.23 192.97 20.83"/><polygon class="cls-1" points="182.5 63.04 182.51 63.03 181.6 60.96 180.96 61.38 182.5 63.04"/><path class="cls-1" d="M227.53,110.17l-1-1.3,0,0c-0.29.23-.27,0.57,0.05,1S227.2,110.42,227.53,110.17Z" transform="translate(-42 -48.57)"/><polygon class="cls-1" points="196.77 39.48 194.59 38.89 194.52 39.64 196.77 39.5 196.77 39.48"/><path class="cls-1" d="M237.18,94.56c0.55,0.17.87,0.07,1-.32l-1.59-.49v0C236.47,94.13,236.68,94.41,237.18,94.56Z" transform="translate(-42 -48.57)"/><path class="cls-1" d="M206.83,49.58a35.24,35.24,0,1,0,35.24,35.24A35.24,35.24,0,0,0,206.83,49.58Zm33,30.21-4.62.7,0.19,1.3,4.75,0.58,0,0.71-5.26,1.34,0-.66,1.16-.27-0.06-1-1.19-.13,0-.49-0.3-2,5.25-.79Zm-2.55-8.63a1.32,1.32,0,0,1-.79,1.87,1.29,1.29,0,0,1-1.26,0A2.9,2.9,0,0,1,234,74.28l-0.58.43,5-.67,0.22,0.67-4.76,2.62-0.21-.63,1.06-.55-0.31-.94-1.18.17-0.19-.57-0.23-.53,0.76-.55c0.86-.63,1.22-1,1-1.3l-2.18.95-0.27-.63L237,70.63Zm-4.2,13.67a26.24,26.24,0,1,1-26.24-26.24A26.24,26.24,0,0,1,233.06,84.82Zm3.21-15.75-4.2,3.44-0.32-.58,0.94-.73-0.47-.86-1.13.39-0.32-.58,5.16-1.69ZM234,65.47l0.4,0.6a1.42,1.42,0,0,1-.34,2.14,1.38,1.38,0,0,1-2.08-.4l-0.08-.12L230,69l-0.38-.57ZM230.21,61l-1.51,3.13h0L231,61.88l0.44,0.45L227.7,66l-0.39-.4,1.53-3.15h0l-2.36,2.31L226,64.35l3.79-3.71ZM228,59c0.73,0.6.3,1.88-.62,3-1.18,1.44-2.26,1.67-2.83,1.21s-0.49-1.64.62-3C226,59.18,227.21,58.31,228,59Zm-1.89-1.35-3,4.37-0.56-.39,3-4.37Zm-1.8-1.27a1.39,1.39,0,0,1,.49.61l-0.35.59a1,1,0,0,0-.42-0.64c-0.52-.31-1.06.25-1.74,1.4s-0.89,1.9-.38,2.21a1.07,1.07,0,0,0,.82,0l-0.37.61a1.24,1.24,0,0,1-.85-0.16c-0.79-.47-0.73-1.57.15-3C222.46,56.66,223.45,55.83,224.33,56.35Zm-6.14-2.86a1.32,1.32,0,0,1,.79,1.87,1.29,1.29,0,0,1-.91.87,2.9,2.9,0,0,1,.11,1.76l-0.1.76,3-4.1L221.74,55l-1.43,5.24-0.59-.29,0.34-1.14-0.89-.43-0.7,1L217.9,59l-0.54-.2,0.13-.93c0.14-1.06.15-1.55-.22-1.64l-0.83,2.22-0.64-.24,1.86-5Zm-1.69-.58-0.17.61-1.17-.32-0.42,1.53L215.81,55l-0.17.61-1.07-.29L214.1,57.1l1.23,0.34-0.17.61-1.89-.52,1.4-5.12Zm-4.94-1.09,0.71,0.12a1.43,1.43,0,0,1,1.32,1.72,1.39,1.39,0,0,1-1.73,1.23l-0.14,0-0.4,2.29L210.65,57Zm-4,2.31c0.09-1.29.57-2.69,1.6-2.62s1.33,1.37,1.23,2.82c-0.13,1.86-.88,2.67-1.6,2.62S207.42,55.89,207.54,54.13Zm-2.09-2.67c0.95,0,1.48,1.21,1.54,2.66,0.08,1.86-.57,2.75-1.3,2.78s-1.46-.9-1.54-2.66C204.09,53,204.41,51.51,205.45,51.46Zm-2.88.24a1.39,1.39,0,0,1,.76.17l0.1,0.68a1,1,0,0,0-.72-0.23c-0.6.09-.67,0.86-0.48,2.18s0.5,2,1.09,2A1.06,1.06,0,0,0,204,56l0.1,0.71a1.24,1.24,0,0,1-.76.41c-0.9.13-1.55-.76-1.8-2.47C201.3,53.12,201.55,51.85,202.56,51.71Zm-5.13,1.16,0.2,0.6-1.15.37L197,55.35l1-.34,0.2,0.6-1,.34,0.56,1.72,1.21-.39,0.2,0.6-1.86.61-1.65-5ZM193,54.53c1.25-.55,2.1.26,2.73,1.69,0.89,2,.19,2.82-0.5,3.13l-0.78.34-2.14-4.85Zm-5.25,2.91c0.78-.54,1.89.23,2.73,1.42,1.06,1.53,1,2.63.39,3.05s-1.72,0-2.73-1.42C187.42,59.43,186.91,58,187.77,57.44Zm-3.29,2.7,3,1.7h0l-2.15-2.47,0.47-.41,3.49,4-0.42.37-3.06-1.72h0L188,64.1l-0.47.41-3.49-4Zm-3.63,3.76a1.38,1.38,0,0,1,.67-0.4l0.54,0.43a1,1,0,0,0-.69.33c-0.37.48,0.11,1.08,1.16,1.9s1.77,1.13,2.14.66a1.06,1.06,0,0,0,.15-0.8l0.52,0.41-3-4.15,0.48-.52,4.57,2.93-0.45.48-1-.67-0.67.72,0.72,1-0.45.48-0.13-.17a1.24,1.24,0,0,1-.26.8c-0.56.72-1.65,0.53-3-.54S180.22,64.7,180.85,63.9Zm-1.31,1.87,4.39,3-0.38.56-4.39-3Zm-1.66,2.64a1.32,1.32,0,0,1,2-.47,1.29,1.29,0,0,1,.71,1,2.9,2.9,0,0,1,1.76.19l1.07,0.33-0.36.62-0.89-.28c-1-.32-1.5-0.41-1.66-0.05L182.53,71l-0.34.59-4.59-2.67ZM177,70l0.58,0.27-0.51,1.1L178.54,72,179,71l0.58,0.27-0.46,1L180.76,73l0.53-1.15,0.58,0.27-0.82,1.77-4.82-2.23Zm-1.95,4.83,2.1-.11-1.59-1.37,0.19-.56,5,1.72-0.22.63L177,73.85h0l1.44,1.2,0,0.12-1.87.07v0l3.65,1.2-0.22.63-5-1.72Zm-1.29,6a1.32,1.32,0,0,1,1.64-1.19,1.29,1.29,0,0,1,1.05.69,2.9,2.9,0,0,1,1.69-.5l0.74-.07-4.65-2,0.16-.69,5.43,0.22-0.15.64-1.19-.08-0.22,1,1.1,0.46-0.13.57-0.08.6-0.93.08c-1.06.1-1.54,0.2-1.55,0.59l2.35,0.31-0.09.68-5.26-.7Zm-0.18,1.78,0.63,0,0,1.21,1.59,0.06,0-1.11,0.64,0,0,1.1L178.23,84l0-1.27,0.64,0-0.08,2-5.31-.21Zm-0.08,2.66,0.63,0,0,0.82,4.67-.23,0,0.68-4.67.23,0,0.82-0.63,0ZM174,90.15l3.08-1.63v0l-3.24.46-0.09-.62L179,87.6l0.08,0.55-3.11,1.63v0l3.27-.47L179.31,90l-5.26.75Zm0.31,1.62,5.18-1.17,0.15,0.67-5.18,1.17Zm1.64,5.57c-0.35-.88.64-1.79,2-2.34,1.72-.7,2.79-0.38,3.06.3s-0.36,1.68-2,2.34C177.78,98.12,176.31,98.31,175.92,97.34Zm0.72,1.54,0.57-.29,0.37,0.73,4.17-2.12,0.31,0.61-4.16,2.12,0.37,0.73-0.57.29Zm2.3,4.13,3.38-2.12c0.38-.24.55-0.54,0.37-0.83a0.59,0.59,0,0,0-.88,0l-3.41,2.14-0.36-.58,3.34-2.1a1.2,1.2,0,1,1,1.31,2l-3.39,2.13Zm0.78,1.17,0.5-.39,0.5,0.65,3.71-2.84,0.42,0.54L181.14,105l0.5,0.65-0.51.39Zm1.83,2.32,4-3.49,0.45,0.52L182,107Zm2.49,2.64-1.63-1.65,0.45-.45,0.58,0.58,3.32-3.29,0.48,0.49-3.32,3.29,0.58,0.58Zm0.83,0.82a1.25,1.25,0,0,1-.34-0.48L185,109a0.89,0.89,0,0,0,.25.44,0.46,0.46,0,0,0,.72,0c0.55-.64.44-2.25,1.17-3.09a1.11,1.11,0,0,1,1.63-.21,1.22,1.22,0,0,1,.37.6l-0.46.53a0.9,0.9,0,0,0-.26-0.61,0.52,0.52,0,0,0-.73.05c-0.54.62-.45,2.27-1.16,3.09A1.1,1.1,0,0,1,184.87,110Zm3,2.27,1-3.34h0l-1.91,2.66-0.51-.37,3.1-4.3,0.45,0.32-1,3.37h0l1.93-2.68,0.51,0.37-3.1,4.31Zm2,1.26-0.59-.35,2.75-4.54,0.59,0.35Zm10.82,2.08-3.93-1.06,0.09-.34,3.93,1.06Zm5.12-.48c-0.15,1.85-.91,2.66-1.63,2.6s-1.34-1.07-1.2-2.83c0.1-1.29.6-2.69,1.63-2.6S205.91,113.64,205.79,115.08Zm0.87,2.65-0.14-5.3,1.89-.05,0,0.63-1.21,0,0,1.59,1.1,0,0,0.63-1.1,0,0,1.81,1.27,0,0,0.63Zm4.83-.35-0.33-1.14-1,.12-0.06,1.19-0.65.08,0.33-5.42,0.7-.09,1.64,5.18Zm2.41-2-0.1-.34,3.89-1.19,0.1,0.34ZM228,110.59a1.32,1.32,0,0,1-2-.28,1.29,1.29,0,0,1-.28-1.23,2.91,2.91,0,0,1-1.57-.81l-0.61-.49,2,4.71-0.59.39L221.15,109l0.55-.36,0.81,0.88,0.82-.54-0.47-1.1,0.5-.33,0.48-.38,0.73,0.59c0.84,0.67,1.25.93,1.53,0.65l-1.48-1.86,0.53-.43,3.31,4.15Zm2.5-2.26-2.79-2.86c-0.32-.32-0.65-0.42-0.89-0.19a0.59,0.59,0,0,0,.15.87L229.8,109l-0.49.48-2.75-2.82a1.2,1.2,0,1,1,1.66-1.69l2.79,2.86Zm1-1L231,106.9l0.53-.62-3.56-3,0.44-.52,3.56,3,0.53-.62,0.48,0.41Zm2.45-3.05-3.79-2.73-0.77,1.06-0.52-.37L230,100.6l4.3,3.1Zm1.87-2.92-3.44-2c-0.39-.23-0.73-0.24-0.9,0a0.59,0.59,0,0,0,.37.8l3.46,2-0.35.59-3.39-2a1.2,1.2,0,1,1,1.15-2.07l3.44,2Zm1.13-2a1.39,1.39,0,0,1-.56.54l-0.63-.29a1,1,0,0,0,.59-0.48c0.26-.55-0.35-1-1.56-1.59s-2-.7-2.23-0.16a1.06,1.06,0,0,0,0,.82l-0.65-.3A1.25,1.25,0,0,1,232,97c0.39-.83,1.48-0.88,3-0.15C236.46,97.51,237.39,98.41,237,99.34Zm0.87-2.16-5-1.86,0.24-.64,5,1.86Zm1-2.86a1.32,1.32,0,0,1-1.82.9,1.29,1.29,0,0,1-.92-0.86,2.9,2.9,0,0,1-1.76.21l-1.11-.09,0.21-.68,0.93,0.07c1.07,0.08,1.55.07,1.63-.32l-2.27-.71,0.2-.65L239,93.78Zm0.73-2.57a1.75,1.75,0,0,1-.58.92l-0.72-.15a1.47,1.47,0,0,0,.7-0.86c0.14-.69-0.52-1.15-1.89-1.43s-2.11-.11-2.26.64a1.41,1.41,0,0,0,0,.24l1.6,0.33,0.09-.46,0.62,0.13-0.23,1.13-2.55-.52a1.63,1.63,0,0,1-.12-1c0.21-1,1.3-1.52,3-1.17S239.76,90.75,239.55,91.75ZM240,88.54l-5.41.45,0.07-.66,1.19-.07,0.1-1L234.82,87l0.07-.66,5.21,1.54Z" transform="translate(-42 -48.57)"/><polygon class="cls-1" points="168.3 64.89 168.2 67.15 168.96 67.05 168.32 64.89 168.3 64.89"/><path class="cls-3" d="M185.39,66.45l0,0,0,0.05v0Z" transform="translate(-42 -48.57)"/></svg>